HIERARCHY
ROOT Hips
{
    OFFSET 0.000000 0.000000 0.000000
    CHANNELS 6 Xposition Yposition Zposition Zrotation Xrotation Yrotation
    JOINT Spine
    {
        OFFSET 0.000001 7.292995 0.000000
        CHANNELS 3 Zrotation Xrotation Yrotation
        JOINT Spine1
        {
            OFFSET -0.000000 20.255388 0.000001
            CHANNELS 3 Zrotation Xrotation Yrotation
            JOINT Neck
            {
                OFFSET 0.000001 20.786594 0.000000
                CHANNELS 3 Zrotation Xrotation Yrotation
                JOINT Head
                {
                    OFFSET 0.000003 12.530788 1.776080
                    CHANNELS 3 Zrotation Xrotation Yrotation
                    End Site
                    {
                        OFFSET 0.000000 17.760757 0.000000
                    }
                }
            }
            JOINT LeftShoulder
            {
                OFFSET 3.550532 15.465697 -0.908801
                CHANNELS 3 Zrotation Xrotation Yrotation
                JOINT LeftArm
                {
                    OFFSET 12.513301 -0.000005 0.000001
                    CHANNELS 3 Zrotation Xrotation Yrotation
                    JOINT LeftForeArm
                    {
                        OFFSET 24.225992 0.000005 0.000000
                        CHANNELS 3 Zrotation Xrotation Yrotation
                        JOINT LeftHand
                        {
                            OFFSET 20.711395 -0.000004 0.000000
                            CHANNELS 3 Zrotation Xrotation Yrotation
                            JOINT LeftHandThumb1
                            {
                                OFFSET 2.121964 -2.411326 3.375861
                                CHANNELS 3 Zrotation Xrotation Yrotation
                                JOINT LeftHandThumb2
                                {
                                    OFFSET 2.803212 -0.000001 -0.000002
                                    CHANNELS 3 Zrotation Xrotation Yrotation
                                    JOINT LeftHandThumb3
                                    {
                                        OFFSET 2.395929 0.000000 0.000000
                                        CHANNELS 3 Zrotation Xrotation Yrotation
                                        End Site
                                        {
                                            OFFSET 2.127676 0.000000 0.000000
                                        }
                                    }
                                }
                            }
                            JOINT LeftHandIndex1
                            {
                                OFFSET 8.680776 0.000004 3.375861
                                CHANNELS 3 Zrotation Xrotation Yrotation
                                JOINT LeftHandIndex2
                                {
                                    OFFSET 4.218180 -0.000002 0.000001
                                    CHANNELS 3 Zrotation Xrotation Yrotation
                                    JOINT LeftHandIndex3
                                    {
                                        OFFSET 2.109090 0.000001 -0.000000
                                        CHANNELS 3 Zrotation Xrotation Yrotation
                                        End Site
                                        {
                                            OFFSET 1.872952 0.000000 0.000000
                                        }
                                    }
                                }
                            }
                            JOINT LeftHandMiddle1
                            {
                                OFFSET 8.680775 0.000001 1.118862
                                CHANNELS 3 Zrotation Xrotation Yrotation
                                JOINT LeftHandMiddle2
                                {
                                    OFFSET 4.640000 0.000002 -0.000000
                                    CHANNELS 3 Zrotation Xrotation Yrotation
                                    JOINT LeftHandMiddle3
                                    {
                                        OFFSET 2.530906 0.000005 0.000000
                                        CHANNELS 3 Zrotation Xrotation Yrotation
                                        End Site
                                        {
                                            OFFSET 2.247544 0.000000 0.000000
                                        }
                                    }
                                }
                            }
                            JOINT LeftHandRing1
                            {
                                OFFSET 8.198514 -0.000004 -1.118859
                                CHANNELS 3 Zrotation Xrotation Yrotation
                                JOINT LeftHandRing2
                                {
                                    OFFSET 4.218182 -0.000003 -0.000001
                                    CHANNELS 3 Zrotation Xrotation Yrotation
                                    JOINT LeftHandRing3
                                    {
                                        OFFSET 2.109086 0.000004 0.000001
                                        CHANNELS 3 Zrotation Xrotation Yrotation
                                        End Site
                                        {
                                            OFFSET 1.872952 0.000000 0.000000
                                        }
                                    }
                                }
                            }
                            JOINT LeftHandPinky1
                            {
                                OFFSET 7.716242 0.000005 -3.375859
                                CHANNELS 3 Zrotation Xrotation Yrotation
                                JOINT LeftHandPinky2
                                {
                                    OFFSET 3.374535 0.000004 0.000002
                                    CHANNELS 3 Zrotation Xrotation Yrotation
                                    JOINT LeftHandPinky3
                                    {
                                        OFFSET 1.687275 0.000002 -0.000001
                                        CHANNELS 3 Zrotation Xrotation Yrotation
                                        End Site
                                        {
                                            OFFSET 1.498360 0.000000 0.000000
                                        }
                                    }
                                }
                            }
                        }
                    }
                }
            }
            JOINT RightShoulder
            {
                OFFSET -3.550531 15.465694 -0.908802
                CHANNELS 3 Zrotation Xrotation Yrotation
                JOINT RightArm
                {
                    OFFSET -12.513298 -0.000004 0.000001
                    CHANNELS 3 Zrotation Xrotation Yrotation
                    JOINT RightForeArm
                    {
                        OFFSET -24.225996 -0.000002 -0.000000
                        CHANNELS 3 Zrotation Xrotation Yrotation
                        JOINT RightHand
                        {
                            OFFSET -20.711401 0.000005 0.000001
                            CHANNELS 3 Zrotation Xrotation Yrotation
                            JOINT RightHandThumb1
                            {
                                OFFSET -2.121970 -2.411334 3.375861
                                CHANNELS 3 Zrotation Xrotation Yrotation
                                JOINT RightHandThumb2
                                {
                                    OFFSET -2.803210 0.000003 -0.000004
                                    CHANNELS 3 Zrotation Xrotation Yrotation
                                    JOINT RightHandThumb3
                                    {
                                        OFFSET -2.395930 -0.000001 0.000002
                                        CHANNELS 3 Zrotation Xrotation Yrotation
                                        End Site
                                        {
                                            OFFSET -2.127676 0.000000 0.000000
                                        }
                                    }
                                }
                            }
                            JOINT RightHandIndex1
                            {
                                OFFSET -8.680779 0.000001 3.375860
                                CHANNELS 3 Zrotation Xrotation Yrotation
                                JOINT RightHandIndex2
                                {
                                    OFFSET -4.218180 0.000000 -0.000000
                                    CHANNELS 3 Zrotation Xrotation Yrotation
                                    JOINT RightHandIndex3
                                    {
                                        OFFSET -2.109090 0.000001 -0.000000
                                        CHANNELS 3 Zrotation Xrotation Yrotation
                                        End Site
                                        {
                                            OFFSET -1.872952 0.000000 0.000000
                                        }
                                    }
                                }
                            }
                            JOINT RightHandMiddle1
                            {
                                OFFSET -8.680780 0.000001 1.118860
                                CHANNELS 3 Zrotation Xrotation Yrotation
                                JOINT RightHandMiddle2
                                {
                                    OFFSET -4.640000 -0.000002 0.000001
                                    CHANNELS 3 Zrotation Xrotation Yrotation
                                    JOINT RightHandMiddle3
                                    {
                                        OFFSET -2.530910 0.000001 -0.000000
                                        CHANNELS 3 Zrotation Xrotation Yrotation
                                        End Site
                                        {
                                            OFFSET -2.247544 0.000000 0.000000
                                        }
                                    }
                                }
                            }
                            JOINT RightHandRing1
                            {
                                OFFSET -8.198519 0.000005 -1.118860
                                CHANNELS 3 Zrotation Xrotation Yrotation
                                JOINT RightHandRing2
                                {
                                    OFFSET -4.218180 -0.000006 0.000000
                                    CHANNELS 3 Zrotation Xrotation Yrotation
                                    JOINT RightHandRing3
                                    {
                                        OFFSET -2.109090 0.000001 -0.000000
                                        CHANNELS 3 Zrotation Xrotation Yrotation
                                        End Site
                                        {
                                            OFFSET -1.872952 0.000000 0.000000
                                        }
                                    }
                                }
                            }
                            JOINT RightHandPinky1
                            {
                                OFFSET -7.716248 -0.000002 -3.375859
                                CHANNELS 3 Zrotation Xrotation Yrotation
                                JOINT RightHandPinky2
                                {
                                    OFFSET -3.374540 0.000000 0.000000
                                    CHANNELS 3 Zrotation Xrotation Yrotation
                                    JOINT RightHandPinky3
                                    {
                                        OFFSET -1.687270 0.000004 0.000001
                                        CHANNELS 3 Zrotation Xrotation Yrotation
                                        End Site
                                        {
                                            OFFSET -1.498360 0.000000 0.000000
                                        }
                                    }
                                }
                            }
                        }
                    }
                }
            }
        }
    }
    JOINT LeftUpLeg
    {
        OFFSET 8.880376 -0.000000 -0.000000
        CHANNELS 3 Zrotation Xrotation Yrotation
        JOINT LeftLeg
        {
            OFFSET -0.000001 -40.387405 -0.000001
            CHANNELS 3 Zrotation Xrotation Yrotation
            JOINT LeftFoot
            {
                OFFSET -0.000001 -36.911297 -0.000001
                CHANNELS 3 Zrotation Xrotation Yrotation
                JOINT LeftToeBase
                {
                    OFFSET -0.000002 -5.772240 13.320604
                    CHANNELS 3 Zrotation Xrotation Yrotation
                    End Site
                    {
                        OFFSET 0.000000 0.000000 3.552151
                    }
                }
            }
        }
    }
    JOINT RightUpLeg
    {
        OFFSET -8.880376 0.000000 0.000000
        CHANNELS 3 Zrotation Xrotation Yrotation
        JOINT RightLeg
        {
            OFFSET -0.000001 -40.387390 0.000000
            CHANNELS 3 Zrotation Xrotation Yrotation
            JOINT RightFoot
            {
                OFFSET 0.000002 -36.911297 -0.000001
                CHANNELS 3 Zrotation Xrotation Yrotation
                JOINT RightToeBase
                {
                    OFFSET 0.000001 -5.772238 13.320600
                    CHANNELS 3 Zrotation Xrotation Yrotation
                    End Site
                    {
                        OFFSET 0.000000 0.000000 3.552151
                    }
                }
            }
        }
    }
}
MOTION
Frames: 4
Frame Time: 0.013889
0.723041    84.191460    3.371394    -0.428096    9.656590    -2.552651    0.121703    -23.836185    0.301149    0.820469    15.494464    0.046281    -3.056575    -8.250900    -1.909454    1.603365    4.112337    -1.595730    -3.156476    5.232567    -0.573547    -65.677887    29.410475    -8.587694    -7.822156    -24.955612    -18.035395    -11.840822    -5.424006    2.693791    40.623779    25.615005    -49.143002    -22.761921    -4.640295    22.876390    -0.000000    0.000000    -0.000000    -19.412434    17.037544    -5.931475    -18.528681    0.000006    -0.000007    -18.528667    -0.000002    0.000001    -15.271911    8.687118    -3.551724    -15.092540    0.000002    -0.000003    -15.092519    -0.000000    0.000001    -13.535052    -8.753971    0.435810    -13.374459    0.000002    0.000005    -13.374449    -0.000000    0.000000    -12.238562    -17.616442    1.312073    -11.656370    -0.000001    -0.000001    -11.656379    -0.000001    0.000008    7.816042    6.498582    2.564380    61.789730    34.710045    9.378592    13.272627    -32.009224    23.990028    -7.066494    -8.599833    -9.104637    -38.557819    29.028406    43.715942    14.113423    -0.950328    -23.299191    -0.000000    0.000000    -0.000000    10.480654    17.718576    1.426440    9.978251    -0.000001    -0.000002    9.978259    -0.000000    -0.000001    10.833344    8.842164    0.639526    10.703091    -0.000002    0.000001    10.703063    0.000001    -0.000001    11.199947    -8.831330    -0.812129    11.065480    -0.000001    0.000001    11.065483    -0.000000    0.000002    11.999331    -17.631264    -1.423158    11.427891    0.000000    -0.000000    11.427892    -0.000001    0.000002    -1.296453    -6.898077    8.729563    -0.000000    3.600096    0.000000    -0.365184    -2.906840    -5.690785    -0.000000    2.481935    -0.000000    1.410801    -7.728585    -7.739981    0.000000    3.761841    -0.000002    7.870788    -3.078720    7.301812    -0.000000    2.440949    0.000001    
0.758798    84.190140    3.375682    -0.450626    9.654718    -2.422054    0.123152    -23.834743    0.304754    0.842394    15.503210    0.043470    -3.115481    -8.216239    -1.896826    1.580352    4.126091    -1.574836    -3.121037    5.265347    -0.560543    -65.582253    29.713741    -8.578845    -7.752125    -24.838926    -17.955997    -12.171350    -4.874499    2.888891    40.449017    25.720953    -49.258652    -22.723236    -4.624036    22.879519    -0.000000    0.000000    -0.000000    -19.020403    17.075861    -5.413997    -18.151920    0.000007    0.000000    -18.151928    0.000000    -0.000001    -14.793673    8.706317    -3.307801    -14.619378    0.000003    0.000001    -14.619378    0.000002    -0.000000    -13.007906    -8.772696    0.397990    -12.853116    0.000003    -0.000000    -12.853106    0.000000    -0.000000    -11.642177    -17.652855    1.256480    -11.086841    -0.000001    0.000001    -11.086833    0.000005    -0.000001    7.840058    6.516192    2.599970    61.836475    34.641563    9.221457    13.098399    -31.909607    23.758791    -6.988286    -8.533787    -9.186666    -38.517441    29.064194    43.688625    14.107567    -0.947800    -23.299280    -0.000000    0.000000    -0.000000    10.492217    17.717957    1.386860    9.989279    0.000001    -0.000002    9.989299    -0.000001    0.000001    10.837341    8.842047    0.620884    10.707006    0.000001    -0.000002    10.707008    0.000001    0.000001    11.200341    -8.831319    -0.843378    11.065864    0.000001    0.000001    11.065862    0.000001    0.000002    11.996031    -17.631468    -1.486780    11.424719    0.000001    0.000002    11.424731    0.000001    -0.000000    -1.306785    -6.866151    8.689835    -0.000000    3.538094    0.000001    -0.474058    -2.962807    -5.746797    0.000000    2.337946    -0.000000    1.394231    -7.700731    -7.777163    -0.000000    3.736585    0.000002    7.870991    -3.094026    7.212952    -0.000001    2.473920    0.000000    
0.787175    84.189011    3.376300    -0.458326    9.650063    -2.303618    0.122628    -23.831636    0.303495    0.842975    15.498735    0.042281    -3.134023    -8.153861    -1.884821    1.562753    4.158978    -1.562780    -3.105459    5.256445    -0.554088    -65.502495    29.953526    -8.623507    -7.721312    -24.844057    -17.885092    -12.295276    -4.708871    3.138578    40.331837    25.835028    -49.228851    -22.695623    -4.612414    22.881739    -0.000000    0.000000    -0.000000    -18.783571    17.098637    -5.111135    -17.924425    0.000008    -0.000006    -17.924419    -0.000002    0.000002    -14.503842    8.717658    -3.165476    -14.332689    0.000008    -0.000006    -14.332681    0.000002    -0.000000    -12.688050    -8.783698    0.343712    -12.536817    -0.000001    0.000000    -12.536807    0.000007    -0.000000    -11.279845    -17.674093    1.160236    -10.740939    -0.000001    0.000001    -10.740951    0.000008    -0.000001    7.858109    6.522949    2.592587    61.881195    34.581829    9.106970    12.987682    -31.843142    23.612856    -6.988421    -8.445122    -9.227551    -38.514198    29.065266    43.693161    14.091352    -0.940821    -23.299549    -0.000000    0.000000    -0.000000    10.486100    17.718283    1.374308    9.983446    0.000001    -0.000000    9.983460    -0.000001    0.000003    10.825385    8.842395    0.615515    10.695182    -0.000000    -0.000000    10.695179    0.000002    0.000000    11.185358    -8.831769    -0.865470    11.051045    -0.000001    0.000002    11.051051    0.000001    -0.000001    11.977393    -17.632612    -1.532008    11.406909    0.000001    0.000002    11.406914    0.000000    -0.000000    -1.330264    -6.848341    8.705080    0.000001    3.495715    -0.000002    -0.668507    -3.026550    -5.868703    -0.000000    2.237615    0.000000    1.368422    -7.666826    -7.806554    -0.000000    3.699312    0.000001    7.896479    -3.112020    7.147446    0.000002    2.505519    -0.000001    
0.813894    84.189301    3.377012    -0.472882    9.641966    -2.170733    0.127773    -23.823997    0.316324    0.847074    15.501930    0.052461    -3.154746    -8.107873    -1.886119    1.544335    4.162743    -1.562195    -3.085543    5.246906    -0.533247    -65.436050    30.187521    -8.686342    -7.722385    -24.867521    -17.872658    -12.373155    -4.561080    3.235926    40.210114    25.971958    -49.149746    -22.670219    -4.601732    22.883785    -0.000000    0.000000    -0.000000    -18.585068    17.117512    -4.765282    -17.733772    0.000005    -0.000000    -17.733759    0.000002    0.000001    -14.265821    8.726808    -2.999448    -14.097244    0.000003    0.000000    -14.097240    -0.000000    0.000000    -12.427313    -8.792464    0.282684    -12.278977    0.000000    -0.000000    -12.278977    0.000000    0.000001    -10.986256    -17.690809    1.047685    -10.460713    0.000000    0.000001    -10.460720    0.000001    0.000002    7.877495    6.534752    2.580963    61.940479    34.528103    8.988206    12.885753    -31.786543    23.475182    -6.975284    -8.350043    -9.274493    -38.516666    29.058254    43.712883    14.072206    -0.932575    -23.299854    -0.000000    0.000000    -0.000000    10.468647    17.719221    1.394051    9.966804    -0.000002    -0.000002    9.966811    0.000001    0.000001    10.812737    8.842763    0.624673    10.682689    -0.000000    -0.000001    10.682686    -0.000001    0.000000    11.174819    -8.832084    -0.885284    11.040638    -0.000001    0.000000    11.040632    -0.000000    -0.000001    11.968659    -17.633144    -1.571046    11.398578    0.000002    -0.000000    11.398584    0.000001    -0.000004    -1.339232    -6.837441    8.728991    0.000000    3.480366    -0.000001    -0.885955    -3.076937    -5.999927    0.000001    2.159431    -0.000000    1.349946    -7.629561    -7.856102    -0.000000    3.668581    0.000001    7.935272    -3.125379    7.076335    -0.000001    2.543072    0.000000    
